# Blender v3.6.4 OBJ File: ''
# www.blender.org
mtllib simpleFlagpole.mtl
o Cylinder
v 0.000000 -0.139605 -1.000000
v 0.000000 0.139605 -0.619591
v 0.382683 -0.139605 -0.923880
v 0.237107 0.139605 -0.572428
v 0.707107 -0.139605 -0.707107
v 0.438117 0.139605 -0.438117
v 0.923880 -0.139605 -0.382683
v 0.572428 0.139605 -0.237107
v 1.000000 -0.139605 0.000000
v 0.619591 0.139605 0.000000
v 0.923880 -0.139605 0.382683
v 0.572428 0.139605 0.237107
v 0.707107 -0.139605 0.707107
v 0.438117 0.139605 0.438117
v 0.382683 -0.139605 0.923880
v 0.237107 0.139605 0.572428
v 0.000000 -0.139605 1.000000
v 0.000000 0.139605 0.619591
v -0.382683 -0.139605 0.923880
v -0.237107 0.139605 0.572428
v -0.707107 -0.139605 0.707107
v -0.438117 0.139605 0.438117
v -0.923880 -0.139605 0.382683
v -0.572428 0.139605 0.237107
v -1.000000 -0.139605 0.000000
v -0.619591 0.139605 0.000000
v -0.923880 -0.139605 -0.382683
v -0.572428 0.139605 -0.237107
v -0.707107 -0.139605 -0.707107
v -0.438117 0.139605 -0.438117
v -0.382683 -0.139605 -0.923880
v -0.237107 0.139605 -0.572428
v 0.382683 0.139605 -0.923880
v 0.000000 0.139605 -1.000000
v 0.707107 0.139605 -0.707107
v 0.923880 0.139605 -0.382683
v 1.000000 0.139605 0.000000
v 0.923880 0.139605 0.382683
v 0.707107 0.139605 0.707107
v 0.382683 0.139605 0.923880
v 0.000000 0.139605 1.000000
v -0.382683 0.139605 0.923880
v -0.707107 0.139605 0.707107
v -0.923880 0.139605 0.382683
v -1.000000 0.139605 0.000000
v -0.923880 0.139605 -0.382683
v -0.707107 0.139605 -0.707107
v -0.382683 0.139605 -0.923880
v 0.032238 0.390840 -0.077829
v 0.000000 0.390840 -0.084242
v 0.059568 0.390840 -0.059568
v 0.077829 0.390840 -0.032238
v 0.084242 0.390840 -0.000000
v 0.077829 0.390840 0.032238
v 0.059568 0.390840 0.059568
v 0.032238 0.390840 0.077829
v 0.000000 0.390840 0.084242
v -0.032238 0.390840 0.077829
v -0.059568 0.390840 0.059568
v -0.077829 0.390840 0.032238
v -0.084242 0.390840 -0.000000
v -0.077829 0.390840 -0.032238
v -0.059568 0.390840 -0.059568
v -0.032238 0.390840 -0.077829
v 0.092352 0.390840 -0.222957
v 0.000000 0.390840 -0.241327
v 0.170644 0.390840 -0.170644
v 0.222957 0.390840 -0.092352
v 0.241327 0.390840 -0.000000
v 0.222957 0.390840 0.092352
v 0.170644 0.390840 0.170644
v 0.092352 0.390840 0.222957
v 0.000000 0.390840 0.241327
v -0.092352 0.390840 0.222957
v -0.170644 0.390840 0.170644
v -0.222957 0.390840 0.092352
v -0.241327 0.390840 -0.000000
v -0.222957 0.390840 -0.092352
v -0.170644 0.390840 -0.170644
v -0.092352 0.390840 -0.222957
v 0.032237 9.296665 -0.077829
v -0.000001 9.296665 -0.084242
v 0.059567 9.296665 -0.059568
v 0.077829 9.296665 -0.032238
v 0.084241 9.296665 -0.000000
v 0.077829 9.296665 0.032238
v 0.059567 9.296665 0.059568
v 0.032237 9.296665 0.077829
v -0.000001 9.296665 0.084242
v -0.032239 9.296665 0.077829
v -0.059569 9.296665 0.059568
v -0.077830 9.296665 0.032238
v -0.084243 9.296665 -0.000000
v -0.077830 9.296665 -0.032238
v -0.059569 9.296665 -0.059568
v -0.032239 9.296665 -0.077829
v -0.000001 7.584548 -0.084242
v 0.032237 7.584548 -0.077829
v -0.032239 7.584548 -0.077829
v -0.000001 7.584548 0.084242
v -0.032239 7.584548 0.077829
v 0.059568 7.584548 -0.059568
v -0.059569 7.584548 0.059568
v 0.077829 7.584548 -0.032238
v -0.077830 7.584548 0.032238
v 0.084241 7.584548 -0.000000
v -0.084242 7.584548 -0.000000
v 0.077829 7.584548 0.032238
v -0.077830 7.584548 -0.032238
v 0.059568 7.584548 0.059568
v -0.059569 7.584548 -0.059568
v 0.032237 7.584548 0.077829
v -0.511567 9.296665 -2.656060
v -0.543805 9.296665 -2.649647
v -0.511566 7.584548 -2.656060
v -0.543804 7.584548 -2.649647
vt 1.000000 0.500000
vt 1.000000 1.000000
vt 0.937500 1.000000
vt 0.937500 0.500000
vt 0.875000 1.000000
vt 0.875000 0.500000
vt 0.812500 1.000000
vt 0.812500 0.500000
vt 0.750000 1.000000
vt 0.750000 0.500000
vt 0.687500 1.000000
vt 0.687500 0.500000
vt 0.625000 1.000000
vt 0.625000 0.500000
vt 0.562500 1.000000
vt 0.562500 0.500000
vt 0.500000 1.000000
vt 0.500000 0.500000
vt 0.437500 1.000000
vt 0.437500 0.500000
vt 0.375000 1.000000
vt 0.375000 0.500000
vt 0.312500 1.000000
vt 0.312500 0.500000
vt 0.250000 1.000000
vt 0.250000 0.500000
vt 0.187500 1.000000
vt 0.187500 0.500000
vt 0.125000 1.000000
vt 0.125000 0.500000
vt 0.112617 0.193094
vt 0.144852 0.144852
vt 0.144852 0.144852
vt 0.112617 0.193094
vt 0.062500 1.000000
vt 0.062500 0.500000
vt 0.000000 1.000000
vt 0.000000 0.500000
vt 0.750000 0.490000
vt 0.841844 0.471731
vt 0.919706 0.419706
vt 0.971731 0.341844
vt 0.990000 0.250000
vt 0.971731 0.158156
vt 0.919706 0.080294
vt 0.841844 0.028269
vt 0.750000 0.010000
vt 0.658156 0.028269
vt 0.580294 0.080294
vt 0.528269 0.158156
vt 0.510000 0.250000
vt 0.528269 0.341844
vt 0.580294 0.419706
vt 0.658156 0.471731
vt 0.250000 0.398702
vt 0.306906 0.387383
vt 0.341844 0.471731
vt 0.250000 0.490000
vt 0.355148 0.355148
vt 0.419706 0.419706
vt 0.387383 0.306906
vt 0.471731 0.341844
vt 0.398702 0.250000
vt 0.490000 0.250000
vt 0.387383 0.193094
vt 0.471731 0.158156
vt 0.355148 0.144852
vt 0.419706 0.080294
vt 0.306906 0.112617
vt 0.341844 0.028269
vt 0.250000 0.101298
vt 0.250000 0.010000
vt 0.193094 0.112617
vt 0.158156 0.028269
vt 0.080294 0.080294
vt 0.028269 0.158156
vt 0.101298 0.250000
vt 0.010000 0.250000
vt 0.112617 0.306906
vt 0.028269 0.341844
vt 0.144852 0.355148
vt 0.080294 0.419706
vt 0.193094 0.387382
vt 0.158156 0.471731
vt 0.269865 0.297957
vt 0.250000 0.301908
vt 0.250000 0.301908
vt 0.269865 0.297957
vt 0.387383 0.306906
vt 0.398702 0.250000
vt 0.101298 0.250000
vt 0.387383 0.193094
vt 0.112617 0.306906
vt 0.355148 0.144852
vt 0.144852 0.355148
vt 0.306906 0.112617
vt 0.193094 0.387382
vt 0.250000 0.101298
vt 0.250000 0.398702
vt 0.306906 0.387383
vt 0.193094 0.112617
vt 0.355148 0.355148
vt 0.250000 0.301908
vt 0.269865 0.297957
vt 0.286705 0.286705
vt 0.297957 0.269865
vt 0.301908 0.250000
vt 0.297957 0.230135
vt 0.286705 0.213295
vt 0.269865 0.202043
vt 0.250000 0.198092
vt 0.230135 0.202043
vt 0.213295 0.213295
vt 0.202043 0.230135
vt 0.198092 0.250000
vt 0.202043 0.269864
vt 0.213295 0.286705
vt 0.230135 0.297957
vt 0.230135 0.297957
vt 0.213295 0.286705
vt 0.202043 0.269864
vt 0.198092 0.250000
vt 0.202043 0.230135
vt 0.213295 0.213295
vt 0.230135 0.202043
vt 0.250000 0.198092
vt 0.269865 0.202043
vt 0.286705 0.213295
vt 0.297957 0.230135
vt 0.301908 0.250000
vt 0.297957 0.269865
vt 0.286705 0.286705
vt 0.230135 0.202043
vt 0.250000 0.198092
vt 0.286705 0.286705
vt 0.213295 0.213295
vt 0.297957 0.269865
vt 0.202043 0.230135
vt 0.301908 0.250000
vt 0.198092 0.250000
vt 0.297957 0.230135
vt 0.202043 0.269864
vt 0.286705 0.213295
vt 0.213295 0.286705
vt 0.269865 0.202043
vt 0.230135 0.297957
vt 0.250000 0.301908
vt 0.230135 0.297957
vt 0.250000 0.301908
vt 0.230135 0.297957
vn 0.1951 0.0000 -0.9808
vn 0.5556 0.0000 -0.8315
vn 0.8315 0.0000 -0.5556
vn 0.9808 0.0000 -0.1951
vn 0.9808 0.0000 0.1951
vn 0.8315 0.0000 0.5556
vn 0.5556 0.0000 0.8315
vn 0.1951 0.0000 0.9808
vn -0.1951 0.0000 0.9808
vn -0.5556 0.0000 0.8315
vn -0.8315 0.0000 0.5556
vn -0.9808 0.0000 0.1951
vn -0.9808 0.0000 -0.1951
vn -0.8315 0.0000 -0.5556
vn -0.4662 0.8280 0.3115
vn -0.5556 0.0000 -0.8315
vn -0.1951 0.0000 -0.9808
vn 0.0000 -1.0000 0.0000
vn 0.0000 1.0000 0.0000
vn 0.5499 0.8280 -0.1094
vn -0.5499 0.8280 0.1094
vn 0.5499 0.8280 0.1094
vn -0.5499 0.8280 -0.1094
vn 0.4662 0.8280 0.3115
vn -0.4662 0.8280 -0.3115
vn 0.3115 0.8280 0.4662
vn -0.3115 0.8280 -0.4662
vn 0.1094 0.8280 0.5499
vn 0.1094 0.8280 -0.5499
vn -0.1094 0.8280 -0.5499
vn -0.1094 0.8280 0.5499
vn 0.3115 0.8280 -0.4662
vn -0.3115 0.8280 0.4662
vn 0.4662 0.8280 -0.3115
g Cylinder_Cylinder_main_pole
usemtl main_pole
s off
f 1/1/1 34/2/1 33/3/1 3/4/1
f 3/4/2 33/3/2 35/5/2 5/6/2
f 5/6/3 35/5/3 36/7/3 7/8/3
f 7/8/4 36/7/4 37/9/4 9/10/4
f 9/10/5 37/9/5 38/11/5 11/12/5
f 11/12/6 38/11/6 39/13/6 13/14/6
f 13/14/7 39/13/7 40/15/7 15/16/7
f 15/16/8 40/15/8 41/17/8 17/18/8
f 17/18/9 41/17/9 42/19/9 19/20/9
f 19/20/10 42/19/10 43/21/10 21/22/10
f 21/22/11 43/21/11 44/23/11 23/24/11
f 23/24/12 44/23/12 45/25/12 25/26/12
f 25/26/13 45/25/13 46/27/13 27/28/13
f 27/28/14 46/27/14 47/29/14 29/30/14
f 24/31/15 22/32/15 75/33/15 76/34/15
f 29/30/16 47/29/16 48/35/16 31/36/16
f 31/36/17 48/35/17 34/37/17 1/38/17
f 1/39/18 3/40/18 5/41/18 7/42/18 9/43/18 11/44/18 13/45/18 15/46/18 17/47/18 19/48/18 21/49/18 23/50/18 25/51/18 27/52/18 29/53/18 31/54/18
f 2/55/19 4/56/19 33/57/19 34/58/19
f 4/56/19 6/59/19 35/60/19 33/57/19
f 6/59/19 8/61/19 36/62/19 35/60/19
f 8/61/19 10/63/19 37/64/19 36/62/19
f 10/63/19 12/65/19 38/66/19 37/64/19
f 12/65/19 14/67/19 39/68/19 38/66/19
f 14/67/19 16/69/19 40/70/19 39/68/19
f 16/69/19 18/71/19 41/72/19 40/70/19
f 18/71/19 20/73/19 42/74/19 41/72/19
f 20/73/19 22/32/19 43/75/19 42/74/19
f 22/32/19 24/31/19 44/76/19 43/75/19
f 24/31/19 26/77/19 45/78/19 44/76/19
f 26/77/19 28/79/19 46/80/19 45/78/19
f 28/79/19 30/81/19 47/82/19 46/80/19
f 30/81/19 32/83/19 48/84/19 47/82/19
f 32/83/19 2/55/19 34/58/19 48/84/19
f 98/85/1 97/86/1 82/87/1 81/88/1
f 10/63/20 8/61/20 68/89/20 69/90/20
f 26/77/21 24/31/21 76/34/21 77/91/21
f 12/65/22 10/63/22 69/90/22 70/92/22
f 28/79/23 26/77/23 77/91/23 78/93/23
f 14/67/24 12/65/24 70/92/24 71/94/24
f 30/81/25 28/79/25 78/93/25 79/95/25
f 16/69/26 14/67/26 71/94/26 72/96/26
f 32/83/27 30/81/27 79/95/27 80/97/27
f 18/71/28 16/69/28 72/96/28 73/98/28
f 4/56/29 2/55/29 66/99/29 65/100/29
f 2/55/30 32/83/30 80/97/30 66/99/30
f 20/73/31 18/71/31 73/98/31 74/101/31
f 6/59/32 4/56/32 65/100/32 67/102/32
f 22/32/33 20/73/33 74/101/33 75/33/33
f 8/61/34 6/59/34 67/102/34 68/89/34
f 50/103/19 49/104/19 65/100/19 66/99/19
f 49/104/19 51/105/19 67/102/19 65/100/19
f 51/105/19 52/106/19 68/89/19 67/102/19
f 52/106/19 53/107/19 69/90/19 68/89/19
f 53/107/19 54/108/19 70/92/19 69/90/19
f 54/108/19 55/109/19 71/94/19 70/92/19
f 55/109/19 56/110/19 72/96/19 71/94/19
f 56/110/19 57/111/19 73/98/19 72/96/19
f 57/111/19 58/112/19 74/101/19 73/98/19
f 58/112/19 59/113/19 75/33/19 74/101/19
f 59/113/19 60/114/19 76/34/19 75/33/19
f 60/114/19 61/115/19 77/91/19 76/34/19
f 61/115/19 62/116/19 78/93/19 77/91/19
f 62/116/19 63/117/19 79/95/19 78/93/19
f 63/117/19 64/118/19 80/97/19 79/95/19
f 64/118/19 50/103/19 66/99/19 80/97/19
f 81/88/19 82/87/19 96/119/19 95/120/19 94/121/19 93/122/19 92/123/19 91/124/19 90/125/19 89/126/19 88/127/19 87/128/19 86/129/19 85/130/19 84/131/19 83/132/19
f 101/133/9 100/134/9 89/126/9 90/125/9
f 102/135/2 98/85/2 81/88/2 83/132/2
f 103/136/10 101/133/10 90/125/10 91/124/10
f 104/137/3 102/135/3 83/132/3 84/131/3
f 105/138/11 103/136/11 91/124/11 92/123/11
f 106/139/4 104/137/4 84/131/4 85/130/4
f 107/140/12 105/138/12 92/123/12 93/122/12
f 108/141/5 106/139/5 85/130/5 86/129/5
f 109/142/13 107/140/13 93/122/13 94/121/13
f 110/143/6 108/141/6 86/129/6 87/128/6
f 111/144/14 109/142/14 94/121/14 95/120/14
f 112/145/7 110/143/7 87/128/7 88/127/7
f 99/146/16 111/144/16 95/120/16 96/119/16
f 100/134/8 112/145/8 88/127/8 89/126/8
f 57/111/8 56/110/8 112/145/8 100/134/8
f 64/118/16 63/117/16 111/144/16 99/146/16
f 56/110/7 55/109/7 110/143/7 112/145/7
f 63/117/14 62/116/14 109/142/14 111/144/14
f 55/109/6 54/108/6 108/141/6 110/143/6
f 62/116/13 61/115/13 107/140/13 109/142/13
f 54/108/5 53/107/5 106/139/5 108/141/5
f 61/115/12 60/114/12 105/138/12 107/140/12
f 53/107/4 52/106/4 104/137/4 106/139/4
f 60/114/11 59/113/11 103/136/11 105/138/11
f 52/106/3 51/105/3 102/135/3 104/137/3
f 59/113/10 58/112/10 101/133/10 103/136/10
f 51/105/2 49/104/2 98/85/2 102/135/2
f 58/112/9 57/111/9 100/134/9 101/133/9
f 50/103/17 64/118/17 99/146/17 97/86/17
f 49/104/1 50/103/1 97/86/1 98/85/1
g Cylinder_Cylinder_flag
usemtl flag
f 96/119/19 82/87/19 113/147/19 114/148/19
f 115/149/17 116/150/17 114/148/17 113/147/17
f 99/146/12 96/119/12 114/148/12 116/150/12
f 97/86/18 99/146/18 116/150/18 115/149/18
f 82/87/4 97/86/4 115/149/4 113/147/4
